<?xml version="1.0" encoding="UTF-8" standalone="no"?>
<svg
   xmlns:dc="http://purl.org/dc/elements/1.1/"
   xmlns:cc="http://creativecommons.org/ns#"
   xmlns:rdf="http://www.w3.org/1999/02/22-rdf-syntax-ns#"
   xmlns:svg="http://www.w3.org/2000/svg"
   xmlns="http://www.w3.org/2000/svg"
   xmlns:sodipodi="http://sodipodi.sourceforge.net/DTD/sodipodi-0.dtd"
   xmlns:inkscape="http://www.inkscape.org/namespaces/inkscape"
   version="1.0"
   width="383.22983"
   height="730.22412"
   viewBox="0 0 179.35156 311.07548"
   preserveAspectRatio="xMidYMid meet"
   id="svg2"
   sodipodi:version="0.32"
   inkscape:version="0.48.4 r9939"
   sodipodi:docname="Man_r.svg"
   inkscape:output_extension="org.inkscape.output.svg.inkscape">
  <defs
     id="defs11" />
  <sodipodi:namedview
     inkscape:window-height="729"
     inkscape:window-width="679"
     inkscape:pageshadow="2"
     inkscape:pageopacity="0.0"
     borderopacity="1.0"
     bordercolor="#666666"
     pagecolor="#ffffff"
     id="base"
     inkscape:zoom="0.7023474"
     inkscape:cx="110.09315"
     inkscape:cy="388.06523"
     inkscape:window-x="683"
     inkscape:window-y="18"
     inkscape:current-layer="layer4"
     inkscape:document-units="pt"
     width="1000px"
     height="1000px"
     units="px"
     showgrid="false"
     inkscape:window-maximized="0"
     fit-margin-top="1"
     fit-margin-left="1"
     fit-margin-right="1"
     fit-margin-bottom="1" />
  <metadata
     id="metadata4">
Created by potrace 1.7, written by Peter Selinger 2001-2005
<rdf:RDF>
  <cc:Work
     rdf:about="">
    <dc:format>image/svg+xml</dc:format>
    <dc:type
       rdf:resource="http://purl.org/dc/dcmitype/StillImage" />
    <dc:title />
  </cc:Work>
</rdf:RDF>
</metadata>
  <g
     inkscape:groupmode="layer"
     id="layer2"
     inkscape:label="Frame"
     transform="translate(-49.821042,-69.849112)" />
  <g
     inkscape:groupmode="layer"
     id="layer4"
     inkscape:label="Man"
     style="display:inline"
     transform="translate(-49.821042,-69.849112)">
    <path
       style="fill:#41b5e1;fill-opacity:1;stroke:#000000;stroke-width:0.58499998;stroke-miterlimit:4;stroke-opacity:1;stroke-dasharray:none;display:inline"
       d="m 140.43622,54.946322 c -1.61392,0.04974 -3.0211,0.41254 -5.23575,1.1115 -4.08805,1.29021 -6.79868,3.49636 -8.08763,6.58125 -0.41363,0.98998 -0.91556,4.18341 -1.12612,7.10775 -0.33389,4.6371 -0.56755,5.50517 -1.74038,6.75675 -1.21738,1.29913 -1.29991,1.71351 -0.95062,4.31438 0.49538,3.68872 1.60093,6.35054 3.20287,7.70737 2.41197,2.04291 3.75886,10.83217 2.223,14.507998 -1.0132,2.42493 -3.51521,3.79767 -14.31787,7.82438 -15.764948,5.87642 -18.994278,8.17144 -20.548128,14.5665 -1.00428,4.13322 -3.08648,17.10376 -4.75312,29.61563 -1.20266,9.02863 -2.58834,13.27658 -7.605,23.44387 -2.63623,5.34285 -4.78238,10.199 -4.78238,10.79325 0,0.59425 -0.47062,3.3714 -1.03837,6.17175 -0.56776,2.80035 -1.17005,7.06718 -1.33088,9.477 -0.19454,2.91486 -0.85422,5.97974 -1.97437,9.15525 -0.92608,2.62532 -2.40254,6.82972 -3.29063,9.34538 -0.88808,2.51565 -1.90721,4.7498 -2.25225,4.9725 -0.34505,0.22269 -1.95411,0.91978 -3.58312,1.53562 -1.92059,0.72606 -3.81962,1.99437 -5.39663,3.627 -1.3376,1.38477 -3.61192,3.55021 -5.06025,4.797 -2.23857,1.92706 -2.53041,2.38066 -1.94512,3.08588 0.92884,1.11919 2.66245,1.04248 5.6745,-0.24863 3.5033,-1.50169 4.23692,-1.4197 3.861,0.4095 -0.89345,4.34744 -2.49874,14.61428 -2.50088,16.01438 -0.0034,2.24084 3.94667,6.44138 5.58675,5.93775 0.62226,-0.19109 1.9761,-0.55742 3.01275,-0.819 1.93206,-0.4875 3.77325,-2.22177 3.77325,-3.55388 0,-0.92098 1.70052,-0.99048 2.58863,-0.10237 1.0141,1.0141 2.62733,-0.99023 3.34912,-4.1535 0.65925,-2.88922 1.73413,-6.97426 2.95425,-11.30513 0.41722,-1.48092 0.96536,-5.28313 1.2285,-8.45325 0.41272,-4.97224 0.66916,-6.02344 1.88663,-7.61962 0.7762,-1.01766 2.16639,-3.75572 3.08587,-6.084 0.91948,-2.32829 2.64173,-6.28668 3.83175,-8.80425 1.19002,-2.51756 2.7955,-6.16242 3.55388,-8.08763 0.75837,-1.9252 1.57607,-3.72587 1.82812,-4.00725 0.25206,-0.28138 0.468,-0.82298 0.468,-1.19925 0,-0.37626 0.56929,-1.96088 1.27238,-3.52462 1.82108,-4.05033 3.451708,-9.03273 4.051118,-12.35813 0.28381,-1.57452 1.0153,-4.43667 1.60875,-6.36187 0.59345,-1.9252 1.52783,-5.08018 2.09138,-7.00538 1.13859,-3.88975 2.31453,-4.71741 3.26137,-2.31075 1.27589,3.24302 2.30932,10.39768 2.5155,17.35988 0.22834,7.71075 -0.22744,12.84078 -1.872,20.7675 -2.79279,13.46115 -3.22457,16.4101 -3.31987,23.15137 -0.10761,7.6106 0.0524,10.07938 1.72575,26.66138 1.43308,14.20092 2.01153,19.02583 2.64712,22.347 0.28341,1.48092 0.77872,4.49612 1.1115,6.71287 0.33278,2.21674 0.72279,4.21934 0.86288,4.446 0.23809,0.38525 -0.52526,4.91029 -3.02738,17.91563 -1.74784,9.08481 -2.42138,18.77147 -1.6965,24.42375 1.0936,8.52743 1.73165,26.31692 1.15538,32.36512 -0.4513,4.73648 -0.78399,5.94715 -2.223,8.307 -2.57297,4.21943 -8.836808,12.82313 -10.398378,14.28863 -1.67564,1.57256 -1.73325,2.37005 -0.30712,4.37287 1.86395,2.61767 4.1858,3.6785 7.327118,3.36375 1.73209,-0.17355 2.89669,-0.0554 3.12975,0.32175 0.5007,0.81015 0.90979,0.77004 3.627,-0.39487 1.61208,-0.69111 3.04027,-1.95113 4.6215,-4.06575 1.25878,-1.68341 2.29613,-3.15189 2.29613,-3.26138 0,-0.10949 0.86525,-2.0543 1.9305,-4.329 2.21571,-4.73136 4.15595,-10.67595 4.12425,-12.65062 -0.0119,-0.74046 -0.431,-4.23464 -0.936,-7.75125 -1.02243,-7.11971 -1.2291,-5.70741 2.77875,-18.64688 3.18403,-10.27981 4.55942,-17.95063 5.031,-27.99225 0.4274,-9.10094 1.16995,-13.16936 3.94875,-21.54262 1.47023,-4.43022 2.68203,-10.88637 4.13887,-22.08375 1.89124,-14.53617 2.43867,-17.22826 3.52463,-17.22825 0.4082,0 0.85446,0.8627 1.03837,2.01825 0.17677,1.11069 0.56574,2.98339 0.86288,4.16812 0.29713,1.18474 0.7629,8.61951 1.03837,16.51163 0.5094,14.59448 1.2493,20.03414 3.5685,26.17875 0.69862,1.85097 0.76143,2.91816 0.33638,5.5575 -0.88273,5.48122 1.52163,26.84489 4.63612,41.21325 0.93173,4.29842 1.00032,5.66738 0.54113,11.04187 -0.9046,10.5875 -1.17045,16.48612 -0.819,17.88638 0.39939,1.59131 11.01097,9.8737 16.57012,12.9285 2.87246,1.57845 4.15292,1.97437 6.4935,1.97437 4.21536,0 7.23582,-1.59577 8.46788,-4.47525 l 0.96525,-2.26687 -1.3455,-1.60875 c -0.74044,-0.88855 -3.92155,-3.35377 -7.06388,-5.46975 -3.14233,-2.11599 -6.88707,-5.04627 -8.32162,-6.52275 l -2.60325,-2.691 -0.0877,-3.96338 c -0.0458,-2.18312 0.21646,-5.90827 0.585,-8.27775 0.36853,-2.36948 1.04275,-7.22441 1.49175,-10.77862 0.44899,-3.55422 1.30624,-9.48944 1.91587,-13.19175 1.35412,-8.22356 1.62829,-23.33324 0.54113,-29.87888 -0.90945,-5.47561 -1.02851,-19.01508 -0.20475,-22.88812 0.65839,-3.0956 2.3667,-14.5906 3.40762,-22.88813 0.33441,-2.66566 0.8209,-5.93579 1.08225,-7.26862 0.26135,-1.33283 0.88588,-6.18777 1.37475,-10.77863 0.48888,-4.59086 1.05229,-9.87324 1.25775,-11.74387 0.20546,-1.87063 0.20033,-4.78067 -0.0146,-6.46425 -1.4379,-11.26181 -2.15524,-15.21935 -3.14438,-17.52075 -0.94032,-2.18783 -1.10495,-3.6218 -1.053,-8.87738 0.063,-6.37708 -0.76056,-15.33802 -1.755,-19.14412 -0.44184,-1.6911 -0.35837,-2.51236 0.39488,-4.18275 0.51436,-1.14065 1.21488,-2.06213 1.56487,-2.06213 0.36036,0 1.17777,2.27708 1.88663,5.25038 0.68847,2.8878 1.6073,6.57561 2.03287,8.20462 0.42556,1.62902 0.95996,4.2941 1.19925,5.92313 0.71855,4.89169 3.62195,12.80284 7.21013,19.656 1.86092,3.55421 3.72132,7.31422 4.12425,8.35087 0.40292,1.03664 2.22034,4.42193 4.0365,7.53188 5.94003,10.17162 6.17175,10.79193 6.17175,15.53175 0,3.98942 1.01697,8.30801 2.61787,11.1735 0.31636,0.56626 1.69551,3.41691 3.07125,6.33262 2.05867,4.36312 2.80276,5.43445 4.19738,6.0255 0.93197,0.39497 1.9965,1.21437 2.36925,1.82813 0.37273,0.61376 1.20216,1.11149 1.84275,1.1115 0.64058,0 1.58695,0.37714 2.09137,0.83362 0.8324,0.75331 1.05142,0.72016 2.457,-0.43875 0.85174,-0.70226 1.96212,-1.43755 2.47163,-1.62337 1.55289,-0.56636 1.69402,-2.86939 0.49725,-8.64338 -0.62873,-3.03337 -1.14075,-6.80501 -1.14075,-8.38012 0,-2.48601 0.11792,-2.82727 0.936,-2.55938 4.59773,1.50564 5.40781,1.60483 7.09312,0.90675 2.26844,-0.93961 1.96457,-2.12274 -0.936,-3.64162 -1.27183,-0.66599 -2.96072,-1.99095 -3.75862,-2.93963 -2.35877,-2.80446 -3.17584,-3.40501 -7.12238,-5.3235 -2.74507,-1.33444 -3.95991,-2.26547 -4.5045,-3.4515 -1.7335,-3.77529 -6.87123,-21.0005 -8.19,-27.46575 -0.7854,-3.8504 -1.61392,-7.85534 -1.84275,-8.892 -0.72372,-3.27856 -2.47769,-7.64999 -5.031,-12.54825 -2.98593,-5.7282 -3.91835,-9.94507 -4.40212,-19.75837 -0.19712,-3.9985 -0.58501,-8.24839 -0.84825,-9.43313 -0.29531,-1.32902 -0.22621,-5.49521 0.16087,-10.89562 0.6829,-9.52766 0.24738,-14.07226 -1.6965,-17.8425 -1.27483,-2.4726 -3.99694,-5.03994 -6.75675,-6.3765 -1.18474,-0.57377 -2.99985,-1.52779 -4.0365,-2.12063 -4.89228,-2.79776 -13.95599,-7.722 -14.2155,-7.722 -0.1597,0 -1.99812,-1.11 -4.08037,-2.457 -4.59945,-2.97537 -5.63525,-4.6442 -4.88475,-7.897498 0.29229,-1.26703 0.55189,-4.24103 0.57037,-6.6105 l 0.0292,-4.31438 2.03288,-1.38937 c 1.39446,-0.963 2.21458,-2.07601 2.66175,-3.5685 0.97494,-3.25406 0.83592,-6.28223 -0.351,-7.35638 -0.55524,-0.50248 -1.14648,-1.94177 -1.31625,-3.18825 -1.93823,-14.23063 -3.02822,-15.86175 -11.45138,-17.33062 -3.07348,-0.53597 -4.89421,-0.79562 -6.50812,-0.74588 z"
       id="path5336"
       inkscape:connector-curvature="0" />
  </g>
  <g
     inkscape:groupmode="layer"
     id="layer5"
     inkscape:label="Woman"
     style="display:inline"
     transform="translate(-49.821042,-69.849112)" />
</svg>
