<?xml version="1.0" encoding="UTF-8" standalone="no"?>
<svg
   xmlns:dc="http://purl.org/dc/elements/1.1/"
   xmlns:cc="http://creativecommons.org/ns#"
   xmlns:rdf="http://www.w3.org/1999/02/22-rdf-syntax-ns#"
   xmlns:svg="http://www.w3.org/2000/svg"
   xmlns="http://www.w3.org/2000/svg"
   xmlns:sodipodi="http://sodipodi.sourceforge.net/DTD/sodipodi-0.dtd"
   xmlns:inkscape="http://www.inkscape.org/namespaces/inkscape"
   version="1.0"
   width="362.94418"
   height="728.31744"
   viewBox="0 0 169.85788 310.26323"
   preserveAspectRatio="xMidYMid meet"
   id="svg2"
   sodipodi:version="0.32"
   inkscape:version="0.48.4 r9939"
   sodipodi:docname="Woman_r.svg"
   inkscape:output_extension="org.inkscape.output.svg.inkscape">
  <defs
     id="defs11" />
  <sodipodi:namedview
     inkscape:window-height="729"
     inkscape:window-width="1362"
     inkscape:pageshadow="2"
     inkscape:pageopacity="0.0"
     borderopacity="1.0"
     bordercolor="#666666"
     pagecolor="#ffffff"
     id="base"
     inkscape:zoom="0.7023474"
     inkscape:cx="327.45524"
     inkscape:cy="393.86741"
     inkscape:window-x="0"
     inkscape:window-y="18"
     inkscape:current-layer="layer4"
     inkscape:document-units="pt"
     width="1000px"
     height="1000px"
     units="px"
     showgrid="false"
     inkscape:window-maximized="0"
     fit-margin-top="1"
     fit-margin-left="1"
     fit-margin-right="1"
     fit-margin-bottom="1" />
  <metadata
     id="metadata4">
Created by potrace 1.7, written by Peter Selinger 2001-2005
<rdf:RDF>
  <cc:Work
     rdf:about="">
    <dc:format>image/svg+xml</dc:format>
    <dc:type
       rdf:resource="http://purl.org/dc/dcmitype/StillImage" />
    <dc:title />
  </cc:Work>
</rdf:RDF>
</metadata>
  <g
     inkscape:groupmode="layer"
     id="layer2"
     inkscape:label="Frame"
     transform="translate(-160.94939,-74.350843)" />
  <g
     inkscape:groupmode="layer"
     id="layer4"
     inkscape:label="Man"
     style="display:inline"
     transform="translate(-160.94939,-74.350843)">
    <path
       inkscape:connector-curvature="0"
       style="fill:#41b5e1;fill-opacity:1;stroke:#000000;stroke-width:0.58499992;stroke-miterlimit:4;stroke-opacity:1;stroke-dasharray:none;display:inline"
       d="m 246.65031,60.108558 c -4.18413,0.0247 -8.76404,2.32189 -11.90475,6.1425 -4.89735,5.95751 -6.57611,11.07288 -6.40575,19.52437 0.11227,5.569552 0.40889,6.714332 2.58863,9.798752 0.49928,0.70651 0.49512,2.27488 -0.0292,6.99075 -0.92629,8.33036 -1.75241,9.73513 -7.26863,12.41661 -2.32127,1.12839 -5.9515,2.53281 -8.073,3.11514 -5.8041,1.59313 -9.39853,3.63801 -10.85175,6.18636 -2.04476,3.58568 -3.40657,12.60139 -4.06575,26.92463 -0.68003,14.77643 -1.31217,18.22447 -5.36737,29.08912 -1.43715,3.8504 -3.61106,10.35915 -4.82625,14.46413 -1.21517,4.10499 -3.02013,9.55032 -4.00725,12.1095 -0.98712,2.55917 -2.45365,6.95574 -3.26138,9.7695 -2.6716,9.30681 -4.25702,11.95194 -10.86637,18.10575 -3.21942,2.99752 -6.53772,6.02184 -7.371,6.7275 -1.04726,0.88685 -1.40492,1.57267 -1.15538,2.223 0.47811,1.24595 1.90423,1.19698 5.16263,-0.20475 3.61879,-1.55676 3.97161,-1.09314 2.89575,3.89025 -2.09413,9.70005 -2.13096,10.00629 -1.15538,11.49525 0.49937,0.76211 1.33126,1.38425 1.84275,1.38937 0.5115,0.005 1.49626,0.61015 2.19375,1.3455 1.53248,1.61561 1.4742,1.61804 4.63613,0.21938 1.86538,-0.82515 2.73726,-1.60066 3.29062,-2.925 0.41416,-0.99119 1.02332,-1.96539 1.3455,-2.1645 0.32218,-0.19912 1.43406,-2.21058 2.47163,-4.47525 1.79397,-3.91569 3.39499,-9.95357 4.53375,-17.05275 0.72635,-4.52811 7.7567,-20.55398 12.051,-27.46575 1.28814,-2.07328 3.06371,-5.45859 3.94875,-7.53188 0.88505,-2.07329 2.72019,-6.30856 4.06575,-9.4185 2.19683,-5.07745 2.75787,-6.87231 3.83175,-11.9925 0.45292,-2.15949 1.71318,-1.8354 2.106,0.54113 0.72848,4.40724 0.34946,6.53128 -2.31075,13.17712 -2.66296,6.65269 -3.84641,11.45874 -5.99625,24.37988 -0.64064,3.8504 -1.97872,10.07685 -2.9835,13.82062 -1.91644,7.14069 -2.25079,11.22386 -1.24313,15.53175 2.10351,8.99271 4.97941,23.66847 5.42588,27.74363 0.29206,2.66565 0.37959,7.50597 0.20475,10.764 -0.17487,3.25803 -0.30854,7.24683 -0.2925,8.86275 0.0284,2.85815 -0.89981,11.42772 -2.42775,22.37625 -1.42461,10.20804 -1.50253,15.57718 -0.33638,22.61025 0.58932,3.55422 1.33952,11.07424 1.66725,16.70175 0.5409,9.28759 0.50467,10.8313 -0.43875,16.80412 -0.86091,5.45054 -1.41535,7.30849 -3.23212,10.83713 -3.01727,5.8603 -4.42904,9.58597 -4.02188,10.647 0.61073,1.59151 7.57852,4.34399 11.84625,4.68 3.547,0.27926 3.97651,0.20068 5.25038,-0.97988 0.76307,-0.70719 1.40813,-1.83496 1.43325,-2.5155 0.0251,-0.68056 0.11981,-5.85311 0.20475,-11.48062 0.0849,-5.62751 0.42946,-11.67788 0.77512,-13.455 0.34567,-1.77711 0.99286,-5.42198 1.43325,-8.08763 0.44042,-2.66567 1.01144,-5.56107 1.27238,-6.44962 0.26094,-0.88856 0.98286,-3.92837 1.60875,-6.74213 0.6259,-2.81376 1.59975,-7.04902 2.1645,-9.4185 0.57475,-2.41143 1.29334,-8.44207 1.62337,-13.70362 0.32429,-5.17001 0.80801,-10.26989 1.08225,-11.31975 0.27423,-1.04987 1.00518,-4.04738 1.62338,-6.669 0.6182,-2.62161 1.72167,-5.93414 2.44237,-7.35638 0.8662,-1.70936 1.49949,-4.29236 1.88663,-7.61962 0.32211,-2.76838 1.17717,-7.4229 1.90125,-10.3545 0.72408,-2.93161 1.3153,-6.20175 1.31625,-7.26863 0.005,-5.17709 3.45221,-20.51888 4.60687,-20.51887 0.99297,0 1.18616,0.87228 1.59413,7.04925 0.20356,3.08205 0.80911,8.75634 1.3455,12.60675 0.67079,4.81513 0.88436,8.6888 0.68737,12.41662 -0.26691,5.05097 -0.16058,5.86857 1.62338,12.1095 2.81319,9.84153 3.49736,14.15699 4.095,25.81313 0.3101,6.04811 1.10271,13.81319 1.85737,18.3105 1.76662,10.52774 3.23031,23.9223 2.8665,26.16412 -0.20512,1.26402 0.13121,2.87376 1.08225,5.2065 0.75625,1.8549 2.2226,6.76367 3.26138,10.91025 2.69742,10.76763 3.99621,13.01732 8.19,14.28863 0.75776,0.2297 1.73485,0.29315 2.17912,0.13162 0.44427,-0.16151 2.50432,-0.77083 4.57763,-1.3455 2.07329,-0.57468 4.56624,-1.65369 5.54287,-2.3985 l 1.78425,-1.3455 -1.08225,-1.84275 c -0.59488,-1.00825 -2.87034,-4.07294 -5.06025,-6.81525 -2.1899,-2.74232 -4.64402,-6.14048 -5.45512,-7.5465 l -1.47713,-2.54475 0.59963,-8.76037 c 0.32824,-4.81387 1.06773,-11.05076 1.65262,-13.8645 0.65221,-3.13755 1.06424,-7.25337 1.06763,-10.63238 0.003,-3.0303 0.2813,-8.56144 0.61425,-12.29962 0.62361,-7.00174 0.0923,-16.84588 -1.25775,-23.25375 -0.44291,-2.10228 -0.43307,-4.66947 0.0439,-9.95963 1.54556,-17.14297 4.59982,-42.18535 5.83538,-47.7945 1.23183,-5.59219 1.29428,-21.17798 0.10237,-27.46575 -0.47722,-2.51757 -1.30319,-7.47303 -1.82812,-11.02725 -0.52492,-3.5542 -1.93022,-11.18939 -3.12975,-16.965 -1.19953,-5.77559 -2.18869,-11.59567 -2.19375,-12.9285 -0.0134,-3.54414 0.70635,-9.65603 1.41862,-12.051 l 0.61425,-2.07675 1.02375,2.89575 c 0.56101,1.59011 1.34055,5.18613 1.72575,7.99988 0.55136,4.02717 1.35547,6.66457 3.77325,12.38737 1.68929,3.99851 3.26132,7.51357 3.49538,7.80975 0.43114,0.5456 6.07729,9.75535 13.221,21.54263 4.76989,7.87042 7.00337,13.32147 7.50262,18.3105 0.20715,2.06993 0.80534,5.58836 1.33088,7.80975 0.52554,2.22138 1.27786,5.44875 1.66725,7.18087 0.73752,3.28068 2.21919,5.733 3.46612,5.733 0.39981,0 1.01795,0.84984 1.36013,1.88663 0.44198,1.33923 1.02889,1.9966 2.0475,2.25225 0.78856,0.19792 1.75555,0.67329 2.14987,1.06762 0.39432,0.39431 0.95464,0.71662 1.24313,0.71663 0.80711,0 3.17362,-2.537 3.17362,-3.40763 0,-0.42563 0.59416,-0.92658 1.33088,-1.1115 0.73671,-0.18491 1.75101,-0.96076 2.25225,-1.72575 0.91691,-1.39937 0.8069,-2.93526 -0.73125,-9.31612 -0.30553,-1.26743 -0.27294,-1.2777 2.41312,-0.92138 2.39604,0.31785 2.88831,0.21044 3.861,-0.83362 0.6111,-0.65594 1.09704,-1.32546 1.09688,-1.49175 -1.6e-4,-0.16629 -1.57639,-1.72236 -3.51,-3.4515 -1.93361,-1.72914 -4.75724,-4.99928 -6.27413,-7.26863 -1.51689,-2.26934 -3.34073,-4.72928 -4.05112,-5.46975 -0.71039,-0.74046 -3.36953,-5.80791 -5.9085,-11.26125 -3.73253,-8.01686 -5.11888,-11.76894 -7.254,-19.56825 -2.57724,-9.41428 -3.97439,-12.80303 -8.78963,-21.411 -1.96217,-3.50769 -2.54918,-5.41725 -4.48987,-14.53725 -1.22902,-5.77559 -2.73576,-13.28099 -3.34913,-16.68712 -1.51472,-8.41162 -2.13582,-11.71142 -2.72025,-14.37638 -0.27233,-1.24184 -0.49725,-3.02577 -0.49725,-3.96336 0,-1.3365 -0.55395,-2.23505 -2.55937,-4.12425 -3.09803,-2.91849 -4.99916,-3.80237 -9.11138,-4.25589 -1.94726,-0.21475 -4.20345,-0.94208 -5.93775,-1.91586 -2.64263,-1.48383 -2.82266,-1.74018 -3.46612,-4.65075 -1.05304,-4.76326 -0.89504,-15.30119 0.2925,-19.49512 1.56718,-5.534682 1.25054,-12.989082 -0.80438,-19.202632 -1.43808,-4.34846 -1.95498,-5.23528 -4.46062,-7.605 -3.12211,-2.95277 -5.7167,-4.41978 -9.69638,-5.499 -0.89988,-0.24404 -1.84243,-0.37132 -2.808,-0.36562 z"
       id="path10191" />
  </g>
  <g
     inkscape:groupmode="layer"
     id="layer5"
     inkscape:label="Woman"
     style="display:inline"
     transform="translate(-160.94939,-74.350843)" />
</svg>
